<svg width="150" height="49" viewBox="0 0 150 49" fill="none" xmlns="http://www.w3.org/2000/svg">
<g clip-path="url(#clip0_1248_3316)">
<path d="M12.0975 12.2266C8.73065 12.2266 5.54954 13.6636 3.25077 16.1371V13.1924H0V49.0001H3.25077V32.7453C5.54954 35.2189 8.73065 36.6559 12.0975 36.6559C18.7384 36.6559 24.1486 31.1669 24.1486 24.4294C24.1486 17.6919 18.7384 12.2266 12.0975 12.2266ZM20.9211 24.453C20.9211 29.3766 16.9737 33.3814 12.1207 33.3814C7.2678 33.3814 3.32043 29.3766 3.32043 24.453C3.32043 19.5294 7.2678 15.5246 12.1207 15.5246C16.9737 15.5246 20.9211 19.5294 20.9211 24.453Z" fill="#146EF5"/>
<path d="M69.6835 12.2264C66.3166 12.2264 63.1355 13.6635 60.8367 16.137V0H57.5859V35.8077H60.8367V32.7452C63.1355 35.2188 66.3166 36.6558 69.6835 36.6558C76.3243 36.6558 81.7345 31.1668 81.7345 24.4293C81.7345 17.6918 76.3243 12.2264 69.6835 12.2264ZM78.507 24.4529C78.507 29.3764 74.5596 33.3813 69.7067 33.3813C64.8537 33.3813 60.9064 29.3764 60.9064 24.4529C60.9064 19.5293 64.8537 15.5245 69.7067 15.5245C74.5596 15.5245 78.507 19.5293 78.507 24.4529Z" fill="#146EF5"/>
<path d="M90.5555 0H87.3047V35.8077H90.5555V0Z" fill="#146EF5"/>
<path d="M146.746 13.1914V23.3448C146.746 27.2789 146.189 29.4933 144.819 30.9303C142.822 33.0034 140.152 33.451 138.247 33.451C136.297 33.451 133.557 33.0034 131.607 30.9303C130.19 29.4227 129.563 27.1376 129.563 23.3448V13.1914H126.312V23.3448C126.312 28.1034 127.195 31.0481 129.238 33.2154C131.421 35.5241 134.532 36.7255 138.224 36.7255H138.294C141.916 36.702 144.981 35.477 147.141 33.2154C149.648 30.577 149.973 26.7371 149.973 23.3448V13.1914H146.746Z" fill="#146EF5"/>
<path d="M117.027 23.3448C117.027 27.2789 116.47 29.4933 115.1 30.9303C113.103 33.0034 110.433 33.451 108.529 33.451C106.578 33.451 103.838 33.0034 101.888 30.9303C100.471 29.4227 99.8445 27.1376 99.8445 23.3448V13.1914H96.5938V23.3448C96.5938 28.1034 97.4761 31.0481 99.5194 33.2154C101.702 35.5241 104.814 36.7255 108.506 36.7255H108.575C112.197 36.702 115.262 35.477 117.422 33.2154C119.93 30.577 120.255 26.7371 120.255 23.3448V13.1914H117.004V23.3448H117.027Z" fill="#146EF5"/>
<path d="M48.7616 23.3448C48.7616 27.2789 48.2043 29.4933 46.8343 30.9303C44.8374 33.0034 42.1671 33.451 40.2631 33.451C38.3126 33.451 35.5727 33.0034 33.6222 30.9303C32.2058 29.4227 31.5789 27.1376 31.5789 23.3448V13.1914H28.3281V23.3448C28.3281 28.1034 29.2105 31.0481 31.2538 33.2154C33.4365 35.5241 36.5479 36.7255 40.2399 36.7255H40.3096C43.9318 36.702 46.9969 35.477 49.1563 33.2154C51.664 30.577 51.9891 26.7371 51.9891 23.3448V13.1914H48.7383V23.3448H48.7616Z" fill="#146EF5"/>
</g>
<defs>
<clipPath id="clip0_1248_3316">
<rect width="150" height="49" fill="white"/>
</clipPath>
</defs>
</svg>
